# MagicaVoxel @ Ephtracy

# group
g fire01

# material
mtllib fire01.mtl
usemtl palette

# normals
vn -1 0 0
vn 1 0 0
vn 0 0 1
vn 0 0 -1
vn 0 -1 0
vn 0 1 0

# texcoords
vt 0.146484 0.5
vt 0.208984 0.5
vt 0.431641 0.5
vt 0.810547 0.5
vt 0.947266 0.5

# verts
v -2 3 -1
v -2 3 -2
v -2 7 1
v -2 7 -0
v -2 8 -1
v -2 8 -2
v -2 9 1
v -2 9 -0
v -1 5 2
v -1 5 -1
v -1 6 2
v -1 6 -1
v -1 7 3
v -1 7 2
v -1 7 1
v -1 9 3
v -1 9 2
v -1 9 1
v -1 9 -0
v -1 10 2
v -1 10 -0
v 0 2 1
v 0 2 -0
v 0 5 1
v 0 5 -0
v 0 6 1
v 0 6 -0
v 0 7 4
v 0 7 3
v 0 7 1
v 0 7 -0
v 0 8 4
v 0 8 3
v 0 9 3
v 0 9 2
v 0 10 3
v 0 10 2
v 0 10 1
v 0 10 -0
v 0 11 1
v 0 11 -0
v 1 2 1
v 1 2 -0
v 1 5 1
v 1 5 -0
v 1 6 1
v 1 6 -0
v 1 7 4
v 1 7 3
v 1 7 1
v 1 7 -0
v 1 8 4
v 1 8 3
v 1 9 3
v 1 9 2
v 1 10 3
v 1 10 2
v 1 10 1
v 1 10 -0
v 1 11 1
v 1 11 -0
v 2 5 2
v 2 5 -1
v 2 6 2
v 2 6 -1
v 2 7 3
v 2 7 2
v 2 7 1
v 2 9 3
v 2 9 2
v 2 9 1
v 2 9 -0
v 2 10 2
v 2 10 -0
v 3 3 -1
v 3 3 -2
v 3 7 1
v 3 7 -0
v 3 8 -1
v 3 8 -2
v 3 9 1
v 3 9 -0
v 0 7 4
v 0 8 4
v 1 7 4
v 1 8 4
v -1 7 3
v -1 9 3
v 0 7 3
v 0 8 3
v 0 9 3
v 0 10 3
v 1 7 3
v 1 8 3
v 1 9 3
v 1 10 3
v 2 7 3
v 2 9 3
v -1 5 2
v -1 6 2
v -1 9 2
v -1 10 2
v 0 9 2
v 0 10 2
v 1 9 2
v 1 10 2
v 2 5 2
v 2 6 2
v 2 9 2
v 2 10 2
v -2 7 1
v -2 9 1
v -1 7 1
v -1 9 1
v 0 2 1
v 0 5 1
v 0 6 1
v 0 7 1
v 0 10 1
v 0 11 1
v 1 2 1
v 1 5 1
v 1 6 1
v 1 7 1
v 1 10 1
v 1 11 1
v 2 7 1
v 2 9 1
v 3 7 1
v 3 9 1
v -2 3 -1
v -2 8 -1
v -1 5 -1
v -1 6 -1
v 0 5 -1
v 0 6 -1
v 1 5 -1
v 1 6 -1
v 2 5 -1
v 2 6 -1
v 3 3 -1
v 3 8 -1
v -2 7 -0
v -2 9 -0
v -1 9 -0
v -1 10 -0
v 0 2 -0
v 0 5 -0
v 0 6 -0
v 0 7 -0
v 0 10 -0
v 0 11 -0
v 1 2 -0
v 1 5 -0
v 1 6 -0
v 1 7 -0
v 1 10 -0
v 1 11 -0
v 2 9 -0
v 2 10 -0
v 3 7 -0
v 3 9 -0
v -2 3 -2
v -2 8 -2
v 3 3 -2
v 3 8 -2
v 0 2 1
v 1 2 1
v 0 2 -0
v 1 2 -0
v -2 3 -1
v 3 3 -1
v -2 3 -2
v 3 3 -2
v -1 5 2
v 2 5 2
v 0 5 1
v 1 5 1
v 0 5 -0
v 1 5 -0
v -1 5 -1
v 0 5 -1
v 1 5 -1
v 2 5 -1
v 0 7 4
v 1 7 4
v -1 7 3
v 0 7 3
v 1 7 3
v 2 7 3
v -1 7 2
v 2 7 2
v -2 7 1
v -1 7 1
v 0 7 1
v 1 7 1
v 2 7 1
v 3 7 1
v -2 7 -0
v 0 7 -0
v 1 7 -0
v 3 7 -0
v -1 6 2
v 2 6 2
v 0 6 1
v 1 6 1
v 0 6 -0
v 1 6 -0
v -1 6 -1
v 0 6 -1
v 1 6 -1
v 2 6 -1
v 0 8 4
v 1 8 4
v 0 8 3
v 1 8 3
v -2 8 -1
v 3 8 -1
v -2 8 -2
v 3 8 -2
v -1 9 3
v 0 9 3
v 1 9 3
v 2 9 3
v -1 9 2
v 0 9 2
v 1 9 2
v 2 9 2
v -2 9 1
v -1 9 1
v 2 9 1
v 3 9 1
v -2 9 -0
v -1 9 -0
v 2 9 -0
v 3 9 -0
v 0 10 3
v 1 10 3
v -1 10 2
v 0 10 2
v 1 10 2
v 2 10 2
v 0 10 1
v 1 10 1
v -1 10 -0
v 0 10 -0
v 1 10 -0
v 2 10 -0
v 0 11 1
v 1 11 1
v 0 11 -0
v 1 11 -0

# faces
f 5/4/1 2/4/1 1/4/1
f 6/4/1 2/4/1 5/4/1
f 7/1/1 4/1/1 3/1/1
f 8/1/1 4/1/1 7/1/1
f 11/4/1 10/4/1 9/4/1
f 12/4/1 10/4/1 11/4/1
f 16/2/1 14/2/1 13/2/1
f 17/1/1 15/1/1 14/1/1
f 17/2/1 14/2/1 16/2/1
f 18/1/1 15/1/1 17/1/1
f 20/1/1 19/1/1 18/1/1
f 20/1/1 18/1/1 17/1/1
f 21/1/1 19/1/1 20/1/1
f 24/5/1 23/5/1 22/5/1
f 25/5/1 23/5/1 24/5/1
f 30/5/1 27/5/1 26/5/1
f 31/5/1 27/5/1 30/5/1
f 32/3/1 29/3/1 28/3/1
f 33/3/1 29/3/1 32/3/1
f 36/2/1 35/2/1 34/2/1
f 37/2/1 35/2/1 36/2/1
f 40/1/1 39/1/1 38/1/1
f 41/1/1 39/1/1 40/1/1
f 42/5/2 43/5/2 44/5/2
f 44/5/2 43/5/2 45/5/2
f 46/5/2 47/5/2 50/5/2
f 50/5/2 47/5/2 51/5/2
f 48/3/2 49/3/2 52/3/2
f 52/3/2 49/3/2 53/3/2
f 54/2/2 55/2/2 56/2/2
f 56/2/2 55/2/2 57/2/2
f 58/1/2 59/1/2 60/1/2
f 60/1/2 59/1/2 61/1/2
f 62/4/2 63/4/2 64/4/2
f 64/4/2 63/4/2 65/4/2
f 66/2/2 67/2/2 69/2/2
f 67/1/2 68/1/2 70/1/2
f 69/2/2 67/2/2 70/2/2
f 70/1/2 68/1/2 71/1/2
f 71/1/2 72/1/2 73/1/2
f 70/1/2 71/1/2 73/1/2
f 73/1/2 72/1/2 74/1/2
f 75/4/2 76/4/2 79/4/2
f 79/4/2 76/4/2 80/4/2
f 77/1/2 78/1/2 81/1/2
f 81/1/2 78/1/2 82/1/2
f 85/3/3 84/3/3 83/3/3
f 86/3/3 84/3/3 85/3/3
f 89/2/3 88/2/3 87/2/3
f 90/2/3 88/2/3 89/2/3
f 91/2/3 88/2/3 90/2/3
f 94/2/3 92/2/3 91/2/3
f 94/2/3 91/2/3 90/2/3
f 95/2/3 92/2/3 94/2/3
f 96/2/3 92/2/3 95/2/3
f 97/2/3 94/2/3 93/2/3
f 97/2/3 95/2/3 94/2/3
f 98/2/3 95/2/3 97/2/3
f 103/1/3 102/1/3 101/1/3
f 104/1/3 102/1/3 103/1/3
f 107/4/3 100/4/3 99/4/3
f 108/4/3 100/4/3 107/4/3
f 109/1/3 106/1/3 105/1/3
f 110/1/3 106/1/3 109/1/3
f 113/1/3 112/1/3 111/1/3
f 114/1/3 112/1/3 113/1/3
f 121/5/3 116/5/3 115/5/3
f 122/5/3 116/5/3 121/5/3
f 123/5/3 118/5/3 117/5/3
f 124/5/3 118/5/3 123/5/3
f 125/1/3 120/1/3 119/1/3
f 126/1/3 120/1/3 125/1/3
f 129/1/3 128/1/3 127/1/3
f 130/1/3 128/1/3 129/1/3
f 133/4/3 132/4/3 131/4/3
f 134/4/3 132/4/3 133/4/3
f 135/4/3 133/4/3 131/4/3
f 136/4/3 132/4/3 134/4/3
f 137/4/3 135/4/3 131/4/3
f 138/4/3 132/4/3 136/4/3
f 139/4/3 137/4/3 131/4/3
f 140/4/3 132/4/3 138/4/3
f 141/4/3 139/4/3 131/4/3
f 141/4/3 140/4/3 139/4/3
f 142/4/3 132/4/3 140/4/3
f 142/4/3 140/4/3 141/4/3
f 143/1/4 144/1/4 145/1/4
f 143/1/4 145/1/4 150/1/4
f 145/1/4 146/1/4 150/1/4
f 150/1/4 146/1/4 151/1/4
f 147/5/4 148/5/4 153/5/4
f 153/5/4 148/5/4 154/5/4
f 149/5/4 150/5/4 155/5/4
f 151/1/4 152/1/4 156/1/4
f 155/5/4 150/5/4 156/5/4
f 150/1/4 151/1/4 156/1/4
f 156/1/4 152/1/4 157/1/4
f 157/1/4 152/1/4 158/1/4
f 156/1/4 157/1/4 159/1/4
f 159/1/4 157/1/4 160/1/4
f 156/1/4 159/1/4 161/1/4
f 161/1/4 159/1/4 162/1/4
f 163/4/4 164/4/4 165/4/4
f 165/4/4 164/4/4 166/4/4
f 169/5/5 168/5/5 167/5/5
f 170/5/5 168/5/5 169/5/5
f 173/4/5 172/4/5 171/4/5
f 174/4/5 172/4/5 173/4/5
f 177/4/5 176/4/5 175/4/5
f 178/4/5 176/4/5 177/4/5
f 179/4/5 177/4/5 175/4/5
f 180/4/5 176/4/5 178/4/5
f 181/4/5 179/4/5 175/4/5
f 182/5/5 180/5/5 179/5/5
f 182/4/5 179/4/5 181/4/5
f 183/4/5 176/4/5 180/4/5
f 183/5/5 180/5/5 182/5/5
f 184/4/5 176/4/5 183/4/5
f 188/3/5 186/3/5 185/3/5
f 189/3/5 186/3/5 188/3/5
f 191/2/5 188/2/5 187/2/5
f 191/2/5 190/2/5 189/2/5
f 191/2/5 189/2/5 188/2/5
f 192/2/5 190/2/5 191/2/5
f 194/1/5 192/1/5 191/1/5
f 195/1/5 192/1/5 194/1/5
f 196/1/5 192/1/5 195/1/5
f 197/1/5 192/1/5 196/1/5
f 199/1/5 194/1/5 193/1/5
f 199/1/5 195/1/5 194/1/5
f 200/1/5 195/1/5 199/1/5
f 201/1/5 197/1/5 196/1/5
f 201/1/5 198/1/5 197/1/5
f 202/1/5 198/1/5 201/1/5
f 203/4/6 204/4/6 205/4/6
f 205/4/6 204/4/6 206/4/6
f 203/4/6 205/4/6 207/4/6
f 206/4/6 204/4/6 208/4/6
f 203/4/6 207/4/6 209/4/6
f 207/5/6 208/5/6 210/5/6
f 209/4/6 207/4/6 210/4/6
f 208/4/6 204/4/6 211/4/6
f 210/5/6 208/5/6 211/5/6
f 211/4/6 204/4/6 212/4/6
f 213/3/6 214/3/6 215/3/6
f 215/3/6 214/3/6 216/3/6
f 217/4/6 218/4/6 219/4/6
f 219/4/6 218/4/6 220/4/6
f 221/2/6 222/2/6 225/2/6
f 225/2/6 222/2/6 226/2/6
f 223/2/6 224/2/6 227/2/6
f 227/2/6 224/2/6 228/2/6
f 229/1/6 230/1/6 233/1/6
f 233/1/6 230/1/6 234/1/6
f 231/1/6 232/1/6 235/1/6
f 235/1/6 232/1/6 236/1/6
f 237/2/6 238/2/6 240/2/6
f 240/2/6 238/2/6 241/2/6
f 239/1/6 240/1/6 243/1/6
f 241/1/6 242/1/6 243/1/6
f 240/1/6 241/1/6 243/1/6
f 243/1/6 242/1/6 244/1/6
f 239/1/6 243/1/6 245/1/6
f 245/1/6 243/1/6 246/1/6
f 244/1/6 242/1/6 247/1/6
f 247/1/6 242/1/6 248/1/6
f 249/1/6 250/1/6 251/1/6
f 251/1/6 250/1/6 252/1/6
